<svg id="Ebene_1" data-name="Ebene 1" xmlns="http://www.w3.org/2000/svg" xmlns:xlink="http://www.w3.org/1999/xlink" viewBox="0 0 2000 310.74"><defs><style>.cls-1{fill:none;}.cls-2{clip-path:url(#clip-path);}.cls-3{fill:#fff;}.cls-4{fill:#ffeb10;}</style><clipPath id="clip-path"><rect class="cls-1" x="1.75" y="1.47" width="1993.98" height="299.1"/></clipPath></defs><g class="cls-2"><path class="cls-3" d="M497.64,237.89h-58V64.15h58C550.73,64.15,585,98.77,585,151s-34.29,86.86-87.38,86.86m0-195H415.87V259.19h81.77c66.94,0,111.45-43.26,111.45-108.5,0-64.56-44.51-107.83-111.45-107.83"/></g><polygon class="cls-3" points="788.63 65.02 788.63 43.93 647.6 43.93 647.6 258.12 788.63 258.12 788.63 237.03 671.1 237.03 671.1 160.58 764.8 160.58 764.8 139.49 671.1 139.49 671.1 65.02 788.63 65.02"/><polygon class="cls-3" points="1057.31 259.19 1033.9 42.86 1023.35 42.86 942.24 221.25 862.44 42.86 851.89 42.86 828.47 259.19 850.57 259.19 866.72 103.44 936.96 259.19 947.51 259.19 1019.06 103.1 1035.22 259.19 1057.31 259.19"/><path class="cls-3" d="M1143,189l48.8-106.84L1239.89,189Zm54.41-146.11H1186.8l-98.44,216.33H1111l22.42-48.92h116.39l22.1,48.92h25.34Z"/><g class="cls-2"><path class="cls-3" d="M1416.79,263.19c36.93,0,68.25-17,88.37-43.27v-2l-15.51-12h-2c-15.82,22-41.21,35.28-70.22,35.28-49.13,0-87.38-37.61-87.38-90.2s38.25-90.19,87.38-90.19c29,0,54.4,13.31,70.22,35.28h2l15.51-12v-2c-20.12-26.29-51.44-43.27-88.37-43.27C1355.13,38.86,1306,86.79,1306,151s49.13,112.17,110.79,112.17"/><path class="cls-4" d="M67.33,26.75a146.76,146.76,0,0,1,150.13-8.7,160.35,160.35,0,0,1,22.09,21.2c44.69,51.86,39.32,130.53-12,175.7a94.53,94.53,0,0,1-134.34-9.37,74.23,74.23,0,0,1-16.63-34.05,76.86,76.86,0,0,0,10.09,22.19,75.46,75.46,0,0,0,105.27,21c27.83-18.85,39.37-53.22,30.89-84.21a74.18,74.18,0,0,0-16.63-34.05A94.51,94.51,0,0,0,71.88,87.11c-51.32,45.16-56.69,123.84-12,175.7A160.13,160.13,0,0,0,82,284a147.53,147.53,0,0,1-55.21-49.7C-18.68,165.78-.48,72.67,67.33,26.75"/><path class="cls-3" d="M278.15,67.75a147.6,147.6,0,0,0-55.22-49.69A159,159,0,0,1,245,39.24c44.7,51.87,39.33,130.54-12,175.71a94.53,94.53,0,0,1-134.34-9.37,74.07,74.07,0,0,1-16.62-34.05h0c-8.48-31,3.06-65.35,30.89-84.2.36-.25.73-.44,1.1-.68.85-.56,1.74-1.07,2.63-1.6,1.15-.7,2.31-1.42,3.48-2.05.08,0,.18-.09.26-.13a74.83,74.83,0,0,1,10.48-4.55c.67-.24,1.32-.51,2-.74l.64-.19a91,91,0,0,1,27.79-4.31,92.43,92.43,0,0,1,19,2c-32.45-18.53-72.25-15.1-103,12C26,132.28,20.65,211,65.35,262.82A160.14,160.14,0,0,0,87.43,284a146.8,146.8,0,0,0,150.15-8.7c67.8-45.92,86-139,40.57-207.55"/><path class="cls-3" d="M1817,221.52h3.25V210.07l11.86-17.38h-3.75l-9.69,14.41L1809,192.69h-3.92L1817,210.11ZM1793,222c5.18,0,8.43-2,11.41-5.06l-2.12-2.1c-2.73,2.64-5.3,4.16-9.21,4.16-6.28,0-11-5.23-11-11.91V207c0-6.63,4.72-11.81,11-11.81a12.37,12.37,0,0,1,9,3.94l2.2-2.38a14.81,14.81,0,0,0-11.13-4.57c-8.39,0-14.43,6.75-14.43,14.9v.09c0,8.28,6.07,14.82,14.31,14.82m-43.62-.49h3.14V197.88L1771,221.52h2.57V192.69h-3.14v23.1l-18-23.1h-3Zm-25.68,0h20.83v-3H1727V208.46h15.58v-3H1727v-9.84h17.41v-3h-20.62Zm-17.08.49a17.22,17.22,0,0,0,11.45-4.4V206.12h-11.78V209H1715v7.16a13.31,13.31,0,0,1-8.23,2.89c-6.94,0-11.3-5.11-11.3-12V207c0-6.42,4.53-11.81,10.85-11.81a12,12,0,0,1,8.68,3.29l2.08-2.48a15,15,0,0,0-10.63-3.82c-8.57,0-14.32,7-14.32,14.9v.09c0,8.23,5.54,14.82,14.52,14.82m-37.88-14.62V195.7h8.81c4.61,0,7.3,2.14,7.3,5.68v.09c0,3.7-3.06,5.92-7.34,5.92Zm-3.21,14.13h3.21V210.31h8.16l8.27,11.21h4l-8.76-11.78c4.49-.82,7.75-3.62,7.75-8.4v-.08a8,8,0,0,0-2.2-5.68c-1.79-1.82-4.61-2.89-8.11-2.89h-12.27Zm-25.68,0h20.82v-3H1643.1V208.46h15.57v-3H1643.1v-9.84h17.41v-3h-20.62Zm-33.76,0h3.13V198.21l10.4,15.4h.16l10.4-15.44v23.35h3.22V192.69h-3.26l-10.39,15.73-10.41-15.73h-3.25Zm-25.68,0h20.83v-3h-17.62V208.46h15.58v-3h-15.58v-9.84h17.41v-3h-20.62Z"/><path class="cls-3" d="M1767.35,169.8l6.52-14.71,6.48,14.71Zm-7.94,10.54h3.3l3.38-7.62h15.53l3.34,7.62h3.46l-13-29h-3Zm-22.19-14.12v-11.7H1746c4.61,0,7.3,2.14,7.3,5.68v.09c0,3.7-3.06,5.93-7.34,5.93ZM1734,180.34h3.21v-11.2h8.15l8.29,11.2h3.95l-8.76-11.78c4.48-.82,7.74-3.62,7.74-8.39v-.09a8,8,0,0,0-2.2-5.68c-1.8-1.81-4.61-2.88-8.12-2.88H1734Zm-19.69-2.51c-6.53,0-11.26-5.35-11.26-11.9v-.08c0-6.55,4.65-11.82,11.17-11.82s11.25,5.35,11.25,11.9V166c0,6.55-4.64,11.82-11.16,11.82m-.09,3c8.69,0,14.6-7,14.6-14.9v-.08c0-7.95-5.83-14.83-14.51-14.83s-14.6,7-14.6,14.91V166c0,8,5.82,14.82,14.51,14.82m-35.63-13.62V154.52h7.22c4.61,0,7.67,2.14,7.67,6.26v.08c0,3.79-3.11,6.35-7.84,6.35Zm-3.22,13.13h3.22V170.16h6.93c6.08,0,11.21-3.2,11.21-9.42v-.08c0-5.69-4.24-9.14-10.67-9.14h-10.69Zm-14.67.41c5.66,0,9.74-3.21,9.74-8.15v-.08c0-4.41-2.94-6.75-9.29-8.16s-7.75-2.88-7.75-5.6v-.08c0-2.59,2.36-4.65,6.08-4.65a12.42,12.42,0,0,1,8.23,3.13l1.87-2.51a14.77,14.77,0,0,0-10-3.54c-5.42,0-9.37,3.32-9.37,7.86v.08c0,4.74,3,6.88,9.58,8.32,6,1.27,7.42,2.8,7.42,5.48v.08c0,2.84-2.53,4.9-6.36,4.9s-6.81-1.36-9.79-4.08l-2,2.39a16.58,16.58,0,0,0,11.66,4.61m-34.28-10.95,6.52-14.71,6.48,14.71Zm-8,10.54h3.3l3.39-7.62h15.52l3.35,7.62h3.46l-13-29h-3Zm-7.5,0h3.22V151.52H1611Zm-27.32-3V154.52h6.69c7.22,0,11.82,5,11.82,11.41V166c0,6.39-4.6,11.33-11.82,11.33Zm-3.21,3h9.9c9,0,15.16-6.3,15.16-14.41v-.08c0-8.12-6.19-14.33-15.16-14.33h-9.9Z"/><path class="cls-3" d="M1971.6,221.52h3.13V197.88l18.43,23.64h2.56V192.69h-3.13v23.1l-18-23.1h-3ZM1951.91,219c-6.53,0-11.26-5.36-11.26-11.91V207c0-6.55,4.65-11.81,11.17-11.81s11.26,5.35,11.26,11.89v.09c0,6.54-4.65,11.82-11.17,11.82m-.09,3c8.69,0,14.6-7,14.6-14.91V207c0-7.94-5.83-14.82-14.51-14.82s-14.6,7-14.6,14.9v.09c0,7.95,5.83,14.82,14.51,14.82m-23.19-.49h3.22V192.69h-3.22Zm-17.53,0h3.25V195.7h9.59v-3h-22.42v3h9.58Zm-23,.49c5.18,0,8.44-2,11.42-5.06l-2.12-2.1c-2.73,2.64-5.3,4.16-9.21,4.16-6.28,0-11-5.23-11-11.91V207c0-6.63,4.73-11.81,11-11.81a12.37,12.37,0,0,1,9,3.94l2.2-2.38a14.83,14.83,0,0,0-11.13-4.57c-8.4,0-14.43,6.75-14.43,14.9v.09c0,8.28,6.07,14.82,14.3,14.82m-36.44-11,6.53-14.71,6.48,14.71Zm-7.94,10.54h3.29l3.39-7.62H1866l3.34,7.62h3.46l-13-29h-3Z"/><path class="cls-3" d="M1589.65,260.35c-3.5,0-6-2.35-6-5.43v-.09c0-2.43,1.67-4.78,5.47-6.17l7.62,7.94c-2.07,2.31-4.45,3.75-7.14,3.75m.78-14.75c-2.16-2.34-2.85-3.62-2.85-5.31v-.08a4.1,4.1,0,0,1,4.32-4.15,3.89,3.89,0,0,1,4,4v.08c0,2.47-1.88,4.24-5.51,5.47m12.8,17.67,2.44-1.89-5-5.15a40.73,40.73,0,0,0,4.11-7.25l-2.65-1.23a37.58,37.58,0,0,1-3.42,6.42l-6.52-6.71c4.16-1.49,6.72-3.83,6.72-7.49v-.09a6.62,6.62,0,0,0-6.93-6.5c-4.53,0-7.54,3-7.54,6.83v.08c0,2.27.9,4,2.85,6.34-4.36,1.74-6.88,4.5-6.88,8.32V255c0,4.82,3.82,8.06,9,8.06,3.71,0,6.72-1.64,9.33-4.48Z"/><path class="cls-3" d="M1906.6,262.69h3.13V239.06l18.43,23.63h2.57V233.87h-3.14V257l-18-23.1h-3Zm-19.7-2.5c-6.52,0-11.25-5.36-11.25-11.91v-.08c0-6.55,4.65-11.82,11.17-11.82s11.26,5.35,11.26,11.9v.08c0,6.55-4.65,11.83-11.18,11.83m-.08,3c8.69,0,14.6-7,14.6-14.91v-.08c0-7.95-5.83-14.82-14.52-14.82s-14.59,7-14.59,14.9v.08c0,7.95,5.82,14.83,14.51,14.83m-23.19-.5h3.21V233.87h-3.21Zm-17.53,0h3.26V236.88h9.58v-3h-22.42v3h9.58Zm-28.94-10.53,6.52-14.71,6.48,14.71Zm-8,10.53h3.3l3.39-7.62h15.53l3.34,7.62h3.46l-13-29h-3Zm-28.13,0h3.14V239.06l18.43,23.63h2.56V233.87h-3.13V257l-18-23.1h-3Zm-9.95,0h3.22V233.87h-3.22Zm-27.32-3V236.88h6.7c7.21,0,11.82,5,11.82,11.4v.08c0,6.39-4.61,11.34-11.82,11.34Zm-3.2,3h9.9c9,0,15.15-6.29,15.15-14.41v-.08c0-8.11-6.19-14.33-15.15-14.33h-9.9ZM1716,248.57V236.88h8.8c4.61,0,7.3,2.13,7.3,5.68v.08c0,3.71-3.06,5.93-7.34,5.93Zm-3.22,14.12H1716v-11.2h8.15l8.28,11.2h3.95l-8.77-11.77c4.49-.83,7.75-3.62,7.75-8.41v-.07a8,8,0,0,0-2.2-5.68c-1.79-1.82-4.61-2.89-8.12-2.89h-12.26Zm-19.7-2.5c-6.52,0-11.24-5.36-11.24-11.91v-.08c0-6.55,4.64-11.82,11.16-11.82s11.26,5.35,11.26,11.9v.08c0,6.55-4.65,11.83-11.18,11.83m-.08,3c8.69,0,14.6-7,14.6-14.91v-.08c0-7.95-5.83-14.82-14.52-14.82s-14.59,7-14.59,14.9v.08c0,7.95,5.83,14.83,14.51,14.83m-32.94-3c-6.52,0-11.25-5.36-11.25-11.91v-.08c0-6.55,4.65-11.82,11.18-11.82s11.25,5.35,11.25,11.9v.08c0,6.55-4.65,11.83-11.18,11.83m-.07,3c8.68,0,14.58-7,14.58-14.91v-.08c0-7.95-5.82-14.82-14.51-14.82s-14.58,7-14.58,14.9v.08c0,7.95,5.82,14.83,14.51,14.83m-27.85,0c5.18,0,8.44-2,11.41-5.06l-2.12-2.1c-2.73,2.63-5.3,4.16-9.21,4.16-6.28,0-11-5.23-11-11.91v-.08c0-6.63,4.73-11.82,11-11.82a12.35,12.35,0,0,1,9,4l2.2-2.39a14.79,14.79,0,0,0-11.13-4.56c-8.4,0-14.43,6.75-14.43,14.9v.08c0,8.28,6.07,14.83,14.31,14.83"/></g></svg>